<svg width="14" height="17" viewBox="0 0 14 17" fill="none" xmlns="http://www.w3.org/2000/svg">
<path d="M13.0726 5.6818C12.5517 6.00071 12.1202 6.44655 11.8186 6.97761C11.5169 7.50867 11.3549 8.10759 11.3478 8.7183C11.3498 9.40565 11.5535 10.0773 11.9335 10.6501C12.3135 11.2228 12.8532 11.6715 13.4857 11.9406C13.2363 12.7452 12.8672 13.5077 12.3909 14.2024C11.7093 15.1836 10.9966 16.1647 9.91217 16.1647C8.82777 16.1647 8.54887 15.5347 7.29917 15.5347C6.08047 15.5347 5.64667 16.1854 4.65517 16.1854C3.66367 16.1854 2.97177 15.2765 2.17647 14.1611C1.12594 12.5985 0.548582 10.766 0.513672 8.8835C0.513672 5.7851 2.52767 4.143 4.51057 4.143C5.56407 4.143 6.44197 4.8349 7.10297 4.8349C7.73297 4.8349 8.71417 4.1016 9.91217 4.1016C10.5281 4.08571 11.1386 4.22152 11.6897 4.49708C12.2408 4.77264 12.7157 5.17949 13.0726 5.6818ZM9.34417 2.79C9.87227 2.16876 10.1712 1.38513 10.1911 0.57C10.192 0.462542 10.1816 0.355288 10.1601 0.25C9.25293 0.338614 8.41408 0.770975 7.81557 1.4584C7.28238 2.05488 6.97217 2.81759 6.93767 3.6169C6.93807 3.71411 6.94846 3.81102 6.96867 3.9061C7.04019 3.91962 7.11279 3.92655 7.18557 3.9268C7.60365 3.89353 8.01059 3.7756 8.38167 3.58018C8.75275 3.38475 9.08022 3.11591 9.34417 2.79Z" fill="black"/>
</svg>
